<svg height='100px' width='100px'  fill="#FFFFFF" xmlns="http://www.w3.org/2000/svg" xmlns:xlink="http://www.w3.org/1999/xlink" xmlns:serif="http://www.serif.com/" viewBox="0 0 134 134" version="1.1" xml:space="preserve" style="" x="0px" y="0px" fill-rule="evenodd" clip-rule="evenodd" stroke-linejoin="round" stroke-miterlimit="2"><rect serif:id="home wifi wireless smarthome monitoring control" x="0" y="0" width="133.333" height="133.333" style="" fill="none"></rect><path d="M54.167,116.667c0,-16.109 -13.059,-29.167 -29.167,-29.167c-2.3,0 -4.167,1.867 -4.167,4.167c0,2.299 1.867,4.166 4.167,4.166c11.506,0 20.833,9.328 20.833,20.834c0,2.299 1.867,4.166 4.167,4.166c2.3,0 4.167,-1.867 4.167,-4.166Zm16.666,0c0,-25.313 -20.52,-45.834 -45.833,-45.834c-2.3,0 -4.167,1.867 -4.167,4.167c0,2.3 1.867,4.167 4.167,4.167c20.711,0 37.5,16.789 37.5,37.5c0,2.299 1.867,4.166 4.167,4.166c2.299,0 4.166,-1.867 4.166,-4.166Zm-41.666,-58.334l0,-3.602c0,-1.195 0.513,-2.332 1.408,-3.123c6.823,-6.026 24.336,-21.495 33.333,-29.441c1.576,-1.392 3.941,-1.392 5.517,0c8.997,7.946 26.51,23.415 33.333,29.441c0.896,0.791 1.409,1.928 1.409,3.123c0,10.31 0,39.225 0,53.602c0,2.302 -1.866,4.167 -4.167,4.167c-7.271,0 -16.667,0 -16.667,0c-2.299,0 -4.166,1.867 -4.166,4.167c0,2.299 1.867,4.166 4.166,4.166c0,0 9.396,0 16.667,0c6.904,0 12.5,-5.596 12.5,-12.5c0,-14.377 0,-43.292 0,-53.602c0,-3.584 -1.539,-6.996 -4.225,-9.369c-6.823,-6.026 -24.336,-21.494 -33.333,-29.441c-4.727,-4.175 -11.823,-4.175 -16.55,0c-8.997,7.946 -26.51,23.415 -33.334,29.441c-2.686,2.373 -4.225,5.785 -4.225,9.369l0,3.602c0,6.248 8.334,6.248 8.334,0Zm8.333,58.334c0,-6.904 -5.596,-12.5 -12.5,-12.5c-2.3,0 -4.167,1.867 -4.167,4.166c0,2.3 1.867,4.167 4.167,4.167c2.301,0 4.167,1.865 4.167,4.167c0,2.299 1.867,4.166 4.166,4.166c2.3,0 4.167,-1.867 4.167,-4.166Z"></path></svg>